<svg width="472" height="73" viewBox="0 0 472 73" fill="none" xmlns="http://www.w3.org/2000/svg">
<path d="M471.5 0L459.983 0.826738L466.457 10.3877L471.5 0ZM0.484459 11.8569C0.896541 12.1048 1.31191 12.3532 1.73055 12.6019L2.75227 10.8826C2.33674 10.6357 1.92449 10.3892 1.51554 10.1431L0.484459 11.8569ZM4.28143 14.0993C5.14469 14.5999 6.02087 15.1019 6.9098 15.6052L7.89508 13.8647C7.0121 13.3648 6.14193 12.8663 5.28474 12.3692L4.28143 14.0993ZM9.53382 17.0735C10.3864 17.5451 11.25 18.0176 12.1245 18.4908L13.0763 16.7318C12.2072 16.2616 11.3491 15.792 10.5019 15.3234L9.53382 17.0735ZM14.7803 19.9123C15.6674 20.3819 16.5651 20.8521 17.4732 21.3226L18.3933 19.5468C17.4904 19.079 16.598 18.6116 15.716 18.1447L14.7803 19.9123ZM20.0889 22.6641C20.97 23.1114 21.8605 23.5589 22.7601 24.0064L23.6508 22.2156C22.7561 21.7706 21.8705 21.3256 20.9942 20.8807L20.0889 22.6641ZM25.4864 25.3486C26.3708 25.7797 27.2637 26.2105 28.1648 26.6411L29.0271 24.8366C28.1306 24.4082 27.2424 23.9795 26.3626 23.5508L25.4864 25.3486ZM30.8447 27.9093C31.746 28.3317 32.6552 28.7537 33.5723 29.1752L34.4075 27.3579C33.4949 26.9385 32.5902 26.5186 31.6935 26.0983L30.8447 27.9093ZM36.3465 30.4377C37.2344 30.8379 38.1294 31.2374 39.0312 31.6363L39.8402 29.8071C38.9425 29.4102 38.0519 29.0125 37.1682 28.6143L36.3465 30.4377ZM41.7576 32.8306C42.6733 33.228 43.5959 33.6245 44.5253 34.0202L45.3087 32.18C44.3835 31.7862 43.4652 31.3914 42.5538 30.9959L41.7576 32.8306ZM47.3169 35.1973C48.2189 35.5739 49.1271 35.9497 50.0413 36.3244L50.7998 34.4738C49.8896 34.1008 48.9855 33.7267 48.0876 33.3517L47.3169 35.1973ZM52.8021 37.4454C53.7285 37.8179 54.6608 38.1894 55.5991 38.5596L56.3331 36.6992C55.3989 36.3306 54.4707 35.9608 53.5484 35.5898L52.8021 37.4454ZM58.4209 39.6623C59.3338 40.0156 60.2521 40.3677 61.1758 40.7185L61.8858 38.8488C60.9661 38.4995 60.0517 38.1489 59.1427 37.7971L58.4209 39.6623ZM63.9628 41.7669C64.8972 42.115 65.8368 42.4617 66.7817 42.8069L67.4681 40.9284C66.5272 40.5846 65.5915 40.2393 64.6611 39.8927L63.9628 41.7669ZM69.632 43.8382C70.5572 44.1696 71.4871 44.4995 72.4219 44.8279L73.0848 42.941C72.1539 42.6139 71.2278 42.2853 70.3065 41.9553L69.632 43.8382ZM75.2295 45.8046C76.17 46.1286 77.1153 46.451 78.0652 46.7717L78.705 44.8768C77.7589 44.5574 76.8175 44.2363 75.8808 43.9136L75.2295 45.8046ZM80.929 47.7287C81.8717 48.0405 82.8189 48.3507 83.7705 48.6591L84.3871 46.7565C83.4394 46.4494 82.496 46.1405 81.557 45.8299L80.929 47.7287ZM86.5945 49.5649C87.54 49.8651 88.4898 50.1635 89.4437 50.46L90.0374 48.5502C89.0873 48.2548 88.1414 47.9576 87.1997 47.6587L86.5945 49.5649ZM92.3179 51.344C93.2792 51.6366 94.2447 51.9272 95.2142 52.2158L95.7849 50.2989C94.8192 50.0114 93.8576 49.722 92.9001 49.4306L92.3179 51.344ZM98.0517 53.0514C99.0013 53.328 99.9547 53.6027 100.912 53.8753L101.46 51.9519C100.506 51.6803 99.5569 51.4067 98.611 51.1312L98.0517 53.0514ZM103.794 54.6873C104.759 54.9559 105.727 55.2224 106.699 55.4868L107.224 53.557C106.256 53.2936 105.292 53.0281 104.331 52.7606L103.794 54.6873ZM109.595 56.2655C110.548 56.5188 111.505 56.7699 112.465 57.0189L112.967 55.083C112.011 54.835 111.058 54.5848 110.109 54.3326L109.595 56.2655ZM115.354 57.7594C116.321 58.0041 117.291 58.2466 118.264 58.4868L118.743 56.5451C117.774 56.3058 116.808 56.0643 115.845 55.8206L115.354 57.7594ZM121.193 59.2007C122.158 59.4328 123.126 59.6626 124.097 59.8902L124.553 57.943C123.586 57.7163 122.622 57.4873 121.661 57.2562L121.193 59.2007ZM126.992 60.5597C127.96 60.7806 128.931 60.9992 129.906 61.2154L130.339 59.2629C129.369 59.0476 128.401 58.8298 127.437 58.6098L126.992 60.5597ZM132.837 61.8569C133.817 62.0683 134.8 62.2773 135.786 62.4839L136.196 60.5264C135.214 60.3207 134.235 60.1125 133.259 59.9019L132.837 61.8569ZM138.703 63.0861C139.673 63.2832 140.645 63.478 141.62 63.6702L142.007 61.708C141.036 61.5165 140.067 61.3226 139.102 61.1262L138.703 63.0861ZM144.553 64.2396C145.533 64.4269 146.516 64.6116 147.501 64.7938L147.865 62.8272C146.883 62.6457 145.904 62.4617 144.928 62.2751L144.553 64.2396ZM150.466 65.3327C151.442 65.507 152.42 65.6788 153.401 65.848L153.741 63.8771C152.764 63.7086 151.789 63.5375 150.818 63.3639L150.466 65.3327ZM156.334 66.3452C157.315 66.5083 158.298 66.6688 159.283 66.8267L159.599 64.8519C158.618 64.6947 157.639 64.5348 156.663 64.3723L156.334 66.3452ZM162.245 67.2923C163.235 67.4448 164.228 67.5946 165.222 67.7417L165.515 65.7632C164.524 65.6167 163.536 65.4675 162.55 65.3156L162.245 67.2923ZM168.176 68.1694C169.157 68.3083 170.139 68.4445 171.124 68.5779L171.392 66.5961C170.412 66.4631 169.433 66.3275 168.457 66.1891L168.176 68.1694ZM174.084 68.9701C175.073 69.098 176.064 69.2232 177.057 69.3455L177.302 67.3605C176.313 67.2387 175.326 67.114 174.341 66.9866L174.084 68.9701ZM180.043 69.704C181.033 69.8197 182.024 69.9325 183.018 70.0426L183.238 68.0547C182.248 67.9452 181.261 67.8327 180.275 67.7175L180.043 69.704ZM185.975 70.3609C186.963 70.4641 187.953 70.5645 188.944 70.662L189.14 68.6716C188.153 68.5745 187.167 68.4745 186.183 68.3717L185.975 70.3609ZM191.925 70.9457C192.92 71.0373 193.918 71.126 194.917 71.2117L195.088 69.219C194.093 69.1337 193.1 69.0453 192.108 68.9541L191.925 70.9457ZM197.912 71.4591C198.898 71.5375 199.886 71.6129 200.876 71.6854L201.022 69.6907C200.036 69.6186 199.052 69.5434 198.07 69.4654L197.912 71.4591ZM203.851 71.8938C204.844 71.9603 205.839 72.0238 206.836 72.0842L206.957 70.0878C205.964 70.0277 204.974 69.9645 203.984 69.8983L203.851 71.8938ZM209.831 72.2561C210.831 72.3104 211.832 72.3615 212.835 72.4095L212.931 70.4118C211.932 70.364 210.935 70.3131 209.939 70.2591L209.831 72.2561ZM215.813 72.5425C216.804 72.5836 217.797 72.6216 218.79 72.6565L218.861 70.6578C217.871 70.623 216.883 70.5852 215.896 70.5442L215.813 72.5425ZM221.777 72.7518C222.773 72.7804 223.772 72.8059 224.771 72.8281L224.816 70.8286C223.82 70.8065 222.826 70.7812 221.834 70.7527L221.777 72.7518ZM227.775 72.8853C228.773 72.901 229.772 72.9135 230.773 72.9228L230.791 70.9229C229.795 70.9136 228.8 70.9012 227.807 70.8855L227.775 72.8853ZM233.749 72.9408C234.742 72.9435 235.737 72.9431 236.733 72.9394L236.726 70.9394C235.734 70.9431 234.744 70.9435 233.755 70.9408L233.749 72.9408ZM239.725 72.9185C240.723 72.9082 241.723 72.8946 242.724 72.8778L242.69 70.878C241.694 70.8949 240.698 70.9084 239.704 70.9186L239.725 72.9185ZM245.731 72.8171C246.723 72.7937 247.717 72.7671 248.712 72.7371L248.652 70.738C247.661 70.7679 246.672 70.7944 245.684 70.8176L245.731 72.8171ZM251.69 72.6376C252.684 72.601 253.679 72.5611 254.675 72.5179L254.589 70.5198C253.597 70.5628 252.606 70.6025 251.617 70.6389L251.69 72.6376ZM257.667 72.3779C258.666 72.3278 259.665 72.2743 260.665 72.2174L260.552 70.2206C259.556 70.2773 258.561 70.3306 257.567 70.3804L257.667 72.3779ZM263.663 72.0366C264.652 71.9736 265.642 71.9072 266.632 71.8374L266.492 69.8423C265.506 69.9118 264.52 69.9779 263.536 70.0406L263.663 72.0366ZM269.607 71.6176C270.6 71.5409 271.594 71.4607 272.588 71.377L272.42 69.3841C271.43 69.4674 270.441 69.5472 269.453 69.6235L269.607 71.6176ZM275.574 71.1155C276.57 71.0247 277.568 70.9305 278.566 70.8327L278.37 68.8422C277.377 68.9396 276.384 69.0334 275.393 69.1237L275.574 71.1155ZM281.543 70.5305C282.529 70.427 283.516 70.32 284.504 70.2095L284.282 68.2219C283.298 68.3319 282.316 68.4384 281.335 68.5414L281.543 70.5305ZM287.47 69.8672C288.459 69.7496 289.449 69.6283 290.44 69.5035L290.19 67.5192C289.203 67.6434 288.218 67.7641 287.233 67.8812L287.47 69.8672ZM293.414 69.1182C294.406 68.9862 295.4 68.8505 296.393 68.7111L296.115 66.7305C295.126 66.8692 294.138 67.0043 293.15 67.1357L293.414 69.1182ZM299.348 68.2861C300.33 68.1415 301.312 67.9933 302.294 67.8414L301.989 65.8649C301.011 66.016 300.034 66.1636 299.057 66.3075L299.348 68.2861ZM305.244 67.3749C306.228 67.2157 307.213 67.0529 308.198 66.8864L307.865 64.9143C306.884 65.0801 305.904 65.2421 304.925 65.4005L305.244 67.3749ZM311.155 66.3757C312.141 66.2018 313.128 66.0241 314.116 65.8427L313.754 63.8756C312.771 64.0562 311.789 64.233 310.808 64.4061L311.155 66.3757ZM317.045 65.2937C318.02 65.1075 318.995 64.9176 319.97 64.724L319.581 62.7622C318.61 62.9549 317.639 63.1439 316.67 63.3292L317.045 65.2937ZM322.898 64.132C323.875 63.9309 324.852 63.7261 325.829 63.5175L325.411 61.5616C324.439 61.7691 323.467 61.973 322.495 62.1731L322.898 64.132ZM328.762 62.8804C329.741 62.6642 330.719 62.4443 331.699 62.2205L331.253 60.2708C330.278 60.4935 329.305 60.7124 328.331 60.9275L328.762 62.8804ZM334.599 61.5465C335.565 61.3185 336.53 61.0868 337.497 60.8512L337.023 58.9081C336.061 59.1425 335.1 59.3731 334.139 59.6001L334.599 61.5465ZM340.396 60.1332C341.363 59.8901 342.331 59.6432 343.298 59.3924L342.796 57.4564C341.834 57.7059 340.871 57.9517 339.909 58.1936L340.396 60.1332ZM346.202 58.6285C347.17 58.37 348.138 58.1077 349.107 57.8414L348.577 55.913C347.613 56.1779 346.649 56.439 345.686 56.6962L346.202 58.6285ZM351.976 57.0417C352.93 56.772 353.885 56.4984 354.84 56.221L354.282 54.3004C353.331 54.5765 352.382 54.8487 351.432 55.1171L351.976 57.0417ZM357.704 55.3773C358.66 55.0922 359.615 54.8033 360.571 54.5104L359.985 52.5982C359.034 52.8896 358.083 53.1772 357.132 53.4608L357.704 55.3773ZM363.438 53.6203C364.394 53.3196 365.35 53.0151 366.306 52.7066L365.692 50.8032C364.74 51.1102 363.789 51.4132 362.838 51.7124L363.438 53.6203ZM369.141 51.7804C370.082 51.4693 371.023 51.1542 371.964 50.8354L371.322 48.9412C370.386 49.2585 369.449 49.5719 368.513 49.8816L369.141 51.7804ZM374.787 49.8671C375.729 49.5405 376.67 49.2099 377.611 48.8755L376.942 46.9909C376.005 47.3237 375.068 47.6526 374.132 47.9776L374.787 49.8671ZM380.436 47.8603C381.377 47.518 382.319 47.1717 383.26 46.8215L382.563 44.9469C381.626 45.2955 380.689 45.64 379.752 45.9807L380.436 47.8603ZM386.061 45.7681C386.986 45.4161 387.911 45.0603 388.836 44.7006L388.111 42.8365C387.191 43.1945 386.27 43.5485 385.349 43.8987L386.061 45.7681ZM391.612 43.6099C392.537 43.2424 393.462 42.871 394.387 42.4957L393.635 40.6424C392.715 41.0159 391.794 41.3855 390.873 41.7512L391.612 43.6099ZM397.162 41.3578C398.087 40.9746 399.012 40.5874 399.937 40.1962L399.158 38.3542C398.237 38.7435 397.317 39.1288 396.397 39.5101L397.162 41.3578ZM402.702 39.0143C403.61 38.6226 404.517 38.227 405.424 37.8275L404.618 35.9971C403.715 36.3946 402.813 36.7883 401.91 37.1781L402.702 39.0143ZM408.145 36.6173C409.052 36.21 409.959 35.7988 410.866 35.3837L410.033 33.5652C409.131 33.9783 408.229 34.3875 407.326 34.7928L408.145 36.6173ZM413.585 34.1264C414.491 33.7034 415.398 33.2764 416.303 32.8454L415.444 31.0394C414.543 31.4683 413.641 31.8932 412.739 32.3141L413.585 34.1264ZM419.021 31.5406C419.913 31.1078 420.806 30.6711 421.698 30.2305L420.813 28.4372C419.925 28.8756 419.037 29.3102 418.148 29.7409L419.021 31.5406ZM424.359 28.905C425.246 28.4593 426.132 28.0096 427.018 27.5561L426.107 25.7757C425.225 26.2271 424.343 26.6745 423.461 27.1181L424.359 28.905ZM429.676 26.1837C430.562 25.7223 431.447 25.257 432.332 24.7877L431.395 23.0207C430.514 23.4878 429.633 23.9508 428.752 24.41L429.676 26.1837ZM434.987 23.368C435.869 22.892 436.751 22.4121 437.632 21.9281L436.67 20.1749C435.793 20.6565 434.915 21.1341 434.037 21.6079L434.987 23.368ZM440.227 20.4922C441.091 20.0097 441.955 19.5234 442.819 19.0331L441.832 17.2937C440.972 17.7816 440.112 18.2656 439.252 18.7458L440.227 20.4922ZM445.409 17.5509C446.272 17.0529 447.135 16.551 447.998 16.0452L446.986 14.32C446.127 14.8234 445.269 15.3229 444.41 15.8185L445.409 17.5509ZM450.584 14.516C451.445 14.0024 452.307 13.4848 453.168 12.9633L452.131 11.2527C451.274 11.7718 450.417 12.2869 449.56 12.7981L450.584 14.516ZM455.726 11.4009C456.566 10.8836 457.407 10.3626 458.246 9.83767L457.186 8.14178C456.35 8.66421 455.514 9.18284 454.678 9.69768L455.726 11.4009ZM460.764 8.25152C461.603 7.71898 462.441 7.1826 463.279 6.64237L462.195 4.96141C461.361 5.49913 460.527 6.033 459.692 6.56306L460.764 8.25152ZM465.792 5.01011C466.629 4.46215 467.465 3.91031 468.302 3.35458L467.195 1.68888C466.362 2.24204 465.53 2.79132 464.696 3.33674L465.792 5.01011Z" fill="black" fill-opacity="0.2"/>
</svg>
