<svg width="518" height="80" viewBox="0 0 518 80" fill="none" xmlns="http://www.w3.org/2000/svg">
<path d="M518 80L506.483 79.1751L512.956 69.6131L518 80ZM0.484711 67.0639C0.897614 66.8156 1.31352 66.567 1.73242 66.3179L2.75446 68.0371C2.33839 68.2844 1.92533 68.5314 1.51529 68.7779L0.484711 67.0639ZM4.28157 64.8194C5.14315 64.3185 6.01657 63.8162 6.90169 63.3129L7.8904 65.0514C7.01074 65.5517 6.14282 66.0507 5.28678 66.5484L4.28157 64.8194ZM9.56511 61.8145C10.4127 61.3427 11.2703 60.8702 12.1379 60.3969L13.0957 62.1527C12.233 62.6232 11.3803 63.0931 10.5378 63.562L9.56511 61.8145ZM14.7706 58.9752C15.658 58.5007 16.5553 58.0257 17.4624 57.5502L18.3909 59.3216C17.4886 59.7946 16.5961 60.267 15.7136 60.7389L14.7706 58.9752ZM20.1207 56.1702C20.9914 55.7225 21.8707 55.2746 22.7584 54.8266L23.6595 56.612C22.7763 57.0578 21.9015 57.5035 21.0353 57.9489L20.1207 56.1702ZM25.4468 53.4823C26.3513 53.0342 27.2642 52.5862 28.1853 52.1382L29.0599 53.9369C28.1432 54.3827 27.2347 54.8286 26.3346 55.2745L25.4468 53.4823ZM30.8629 50.8479C31.7499 50.4243 32.6442 50.0009 33.5457 49.5778L34.3953 51.3884C33.4979 51.8095 32.6077 52.231 31.7249 52.6526L30.8629 50.8479ZM36.2722 48.3099C37.1882 47.8876 38.1114 47.4658 39.0417 47.0446L39.8666 48.8665C38.9404 49.2859 38.0213 49.7058 37.1094 50.1262L36.2722 48.3099ZM41.7584 45.8252C42.6571 45.4253 43.5621 45.026 44.4735 44.6274L45.2749 46.4598C44.3674 46.8567 43.4663 47.2543 42.5715 47.6524L41.7584 45.8252ZM47.2265 43.4337C48.1505 43.0365 49.0807 42.6402 50.017 42.2447L50.7952 44.0871C49.8627 44.4809 48.9364 44.8756 48.0163 45.2711L47.2265 43.4337ZM52.7874 41.0847C53.6948 40.708 54.6078 40.3322 55.5263 39.9574L56.282 41.8091C55.3672 42.1824 54.4579 42.5567 53.5542 42.9318L52.7874 41.0847ZM58.2985 38.8359C59.2281 38.463 60.1631 38.0912 61.1036 37.7206L61.837 39.5813C60.9002 39.9505 59.9689 40.3208 59.043 40.6921L58.2985 38.8359ZM63.9374 36.6135C64.8515 36.2595 65.7705 35.9067 66.6944 35.555L67.4059 37.4242C66.4855 37.7745 65.5701 38.126 64.6596 38.4786L63.9374 36.6135ZM69.4809 34.5036C70.4146 34.1544 71.3532 33.8064 72.2965 33.4597L72.9864 35.3369C72.0467 35.6823 71.1117 36.029 70.1816 36.3769L69.4809 34.5036ZM75.1411 32.4237C76.0796 32.0849 77.0228 31.7474 77.9706 31.4114L78.6389 33.2964C77.6947 33.6312 76.7551 33.9674 75.8201 34.3049L75.1411 32.4237ZM80.7682 30.4283C81.7051 30.102 82.6463 29.7771 83.5919 29.4537L84.2391 31.3461C83.2971 31.6683 82.3594 31.9919 81.426 32.317L80.7682 30.4283ZM86.4412 28.488C87.3953 28.1676 88.3536 27.8488 89.316 27.5316L89.9421 29.4311C88.9831 29.7472 88.0284 30.0648 87.0779 30.384L86.4412 28.488ZM92.1556 26.6045C93.0951 26.3006 94.0384 25.9982 94.9856 25.6975L95.5908 27.6038C94.647 27.9034 93.7072 28.2046 92.7711 28.5074L92.1556 26.6045ZM97.8388 24.8003C98.7936 24.5029 99.7523 24.2072 100.715 23.9133L101.299 25.826C100.34 26.1189 99.3849 26.4136 98.4335 26.7099L97.8388 24.8003ZM103.613 23.0366C104.563 22.7522 105.517 22.4695 106.474 22.1886L107.037 24.1076C106.083 24.3875 105.133 24.6692 104.187 24.9526L103.613 23.0366ZM109.33 21.3585C110.285 21.0836 111.244 20.8104 112.207 20.5392L112.749 22.4642C111.79 22.7345 110.835 23.0066 109.883 23.2805L109.33 21.3585ZM115.104 19.731C116.073 19.4635 117.046 19.1979 118.022 18.9343L118.543 20.865C117.571 21.1277 116.602 21.3924 115.636 21.6589L115.104 19.731ZM120.91 18.1622C121.866 17.9093 122.826 17.6584 123.788 17.4095L124.289 19.3457C123.33 19.5938 122.374 19.8438 121.421 20.0957L120.91 18.1622ZM126.684 16.6685C127.653 16.4235 128.624 16.1805 129.599 15.9396L130.079 17.8811C129.108 18.1212 128.14 18.3633 127.175 18.6074L126.684 16.6685ZM132.531 15.2229C133.503 14.9884 134.477 14.756 135.453 14.5256L135.912 16.4722C134.939 16.7017 133.969 16.9334 133.001 17.167L132.531 15.2229ZM138.349 13.851C139.317 13.6282 140.288 13.4075 141.261 13.1889L141.699 15.1403C140.729 15.3581 139.762 15.578 138.798 15.8L138.349 13.851ZM144.19 12.5397C145.169 12.3254 146.15 12.1133 147.135 11.9035L147.552 13.8595C146.571 14.0686 145.593 14.2799 144.617 14.4934L144.19 12.5397ZM150.093 11.2813C151.06 11.0805 152.031 10.8819 153.003 10.6855L153.399 12.6459C152.43 12.8416 151.463 13.0395 150.499 13.2395L150.093 11.2813ZM155.928 10.103C156.906 9.91106 157.886 9.7214 158.868 9.53403L159.243 11.4986C158.264 11.6853 157.288 11.8743 156.314 12.0655L155.928 10.103ZM161.823 8.97888C162.81 8.79617 163.8 8.61579 164.792 8.4378L165.145 10.4064C164.157 10.5837 163.171 10.7634 162.187 10.9455L161.823 8.97888ZM167.741 7.91698C168.717 7.74728 169.695 7.5799 170.676 7.41489L171.008 9.38717C170.031 9.55157 169.056 9.71835 168.083 9.88744L167.741 7.91698ZM173.625 6.92701C174.611 6.76678 175.598 6.60896 176.587 6.45358L176.898 8.42938C175.912 8.58418 174.928 8.74143 173.946 8.90108L173.625 6.92701ZM179.563 5.99485C180.556 5.84441 181.552 5.69646 182.55 5.55105L182.839 7.53015C181.844 7.67503 180.852 7.82244 179.862 7.97232L179.563 5.99485ZM185.496 5.1301C186.479 4.99232 187.465 4.85701 188.452 4.72421L188.718 6.70636C187.735 6.83867 186.753 6.97348 185.773 7.11075L185.496 5.1301ZM191.42 4.33338C192.411 4.20564 193.404 4.08044 194.399 3.95783L194.643 5.94283C193.652 6.06498 192.663 6.18971 191.675 6.31698L191.42 4.33338ZM197.39 3.59779C198.384 3.48095 199.38 3.3667 200.378 3.25509L200.6 5.24269C199.606 5.35389 198.614 5.46771 197.623 5.58412L197.39 3.59779ZM203.338 2.93225C204.327 2.82722 205.317 2.72481 206.309 2.62503L206.51 4.61499C205.521 4.71439 204.534 4.81643 203.549 4.92106L203.338 2.93225ZM209.291 2.33364C210.287 2.23917 211.284 2.14738 212.283 2.0583L212.461 4.0504C211.466 4.13914 210.472 4.23059 209.48 4.3247L209.291 2.33364ZM215.285 1.79923C216.28 1.71626 217.276 1.63599 218.274 1.55845L218.429 3.55244C217.435 3.62968 216.443 3.70965 215.452 3.79231L215.285 1.79923ZM221.247 1.33596C222.239 1.26452 223.234 1.19579 224.229 1.12984L224.361 3.12546C223.37 3.19117 222.379 3.25963 221.391 3.3308L221.247 1.33596ZM227.22 0.940262C228.219 0.879852 229.219 0.822243 230.221 0.767456L230.33 2.76447C229.332 2.81905 228.336 2.87644 227.341 2.93661L227.22 0.940262ZM233.23 0.611618C234.226 0.562965 235.223 0.517113 236.222 0.474113L236.308 2.47226C235.313 2.5151 234.32 2.56077 233.328 2.60924L233.23 0.611618ZM239.202 0.354401C240.197 0.317329 241.193 0.283089 242.19 0.251732L242.253 2.25074C241.26 2.28198 240.267 2.31609 239.276 2.35301L239.202 0.354401ZM245.187 0.166298C246.187 0.140709 247.189 0.118034 248.192 0.0982971L248.231 2.09791C247.232 2.11757 246.235 2.14016 245.238 2.16564L245.187 0.166298ZM251.204 0.0479202C252.201 0.0342026 253.199 0.023407 254.198 0.015564L254.214 2.0155C253.219 2.02332 252.225 2.03407 251.232 2.04773L251.204 0.0479202ZM257.182 0.000953674C258.177 -0.000976562 259.174 3.05176e-05 260.172 0.00402069L260.164 2.00401C259.17 2.00003 258.177 1.99902 257.185 2.00095L257.182 0.000953674ZM263.17 0.0249557C264.17 0.0349274 265.172 0.0479126 266.174 0.063942L266.142 2.06368C265.144 2.04772 264.146 2.03479 263.15 2.02486L263.17 0.0249557ZM269.186 0.121162C270.183 0.143135 271.182 0.168137 272.182 0.19619L272.126 2.1954C271.13 2.16747 270.135 2.14256 269.142 2.12067L269.186 0.121162ZM275.164 0.288857C276.159 0.322784 277.155 0.359749 278.152 0.399796L278.071 2.39819C277.078 2.35831 276.086 2.32149 275.095 2.2877L275.164 0.288857ZM281.146 0.529182C282.145 0.575401 283.145 0.624725 284.146 0.677185L284.041 2.67445C283.044 2.6222 282.048 2.57307 281.053 2.52704L281.146 0.529182ZM287.152 0.844002C288.15 0.902473 289.149 0.964081 290.149 1.02885L290.02 3.02467C289.024 2.96017 288.029 2.89881 287.035 2.84058L287.152 0.844002ZM293.125 1.23077C294.118 1.30119 295.111 1.37476 296.106 1.45148L295.952 3.44556C294.961 3.36915 293.972 3.29589 292.983 3.22575L293.125 1.23077ZM299.092 1.69119C300.088 1.77428 301.085 1.86055 302.083 1.95004L301.904 3.94205C300.911 3.85293 299.918 3.76701 298.926 3.68427L299.092 1.69119ZM305.079 2.22823C306.077 2.32405 307.076 2.42312 308.076 2.52545L307.872 4.51505C306.877 4.41315 305.882 4.3145 304.888 4.21907L305.079 2.22823ZM311.04 2.83829C312.029 2.94579 313.019 3.05649 314.009 3.17043L313.781 5.15733C312.794 5.04386 311.809 4.93362 310.824 4.82658L311.04 2.83829ZM316.982 3.52203C317.974 3.64249 318.967 3.76622 319.96 3.89325L319.706 5.87709C318.717 5.7506 317.729 5.62739 316.741 5.50744L316.982 3.52203ZM322.941 4.28427C323.936 4.41792 324.931 4.5549 325.927 4.69524L325.648 6.67567C324.656 6.53593 323.665 6.39954 322.675 6.26645L322.941 4.28427ZM328.885 5.12164C329.868 5.26661 330.852 5.41487 331.836 5.56644L331.532 7.54315C330.552 7.39223 329.572 7.24461 328.593 7.10026L328.885 5.12164ZM334.792 6.03113C335.777 6.18935 336.763 6.35092 337.75 6.51585L337.421 8.48849C336.438 8.32426 335.456 8.16339 334.475 8.00584L334.792 6.03113ZM340.712 7.02078C341.7 7.19247 342.688 7.36756 343.677 7.54607L343.322 9.51426C342.337 9.33652 341.353 9.16219 340.37 8.99124L340.712 7.02078ZM346.631 8.08915C347.607 8.27187 348.583 8.45795 349.56 8.64739L349.179 10.6108C348.207 10.4222 347.235 10.2369 346.263 10.055L346.631 8.08915ZM352.492 9.22587C353.47 9.42209 354.448 9.62171 355.427 9.82475L355.02 11.7831C354.046 11.5809 353.072 11.3821 352.099 11.1868L352.492 9.22587ZM358.364 10.4442C359.343 10.6541 360.323 10.8675 361.303 11.0843L360.871 13.0371C359.896 12.8212 358.92 12.6088 357.945 12.3998L358.364 10.4442ZM364.245 11.7453C365.214 11.9664 366.184 12.1909 367.154 12.4189L366.696 14.3658C365.73 14.1388 364.765 13.9153 363.8 13.6952L364.245 11.7453ZM370.057 13.1113C371.025 13.3456 371.993 13.5833 372.962 13.8244L372.478 15.7652C371.514 15.5251 370.55 15.2884 369.586 15.0552L370.057 13.1113ZM375.868 14.5584C376.838 14.8065 377.807 15.0581 378.777 15.3133L378.268 17.2475C377.303 16.9934 376.337 16.7429 375.372 16.4959L375.868 14.5584ZM381.687 16.0893C382.654 16.3506 383.622 16.6155 384.589 16.8839L384.055 18.8111C383.091 18.5439 382.128 18.2802 381.165 18.0201L381.687 16.0893ZM387.458 17.6898C388.414 17.9619 389.37 18.2375 390.327 18.5166L389.767 20.4366C388.815 20.1587 387.862 19.8843 386.91 19.6134L387.458 17.6898ZM393.198 19.3644C394.155 19.6505 395.112 19.9402 396.07 20.2334L395.484 22.1457C394.531 21.8538 393.578 21.5655 392.625 21.2806L393.198 19.3644ZM398.943 21.1237C399.901 21.424 400.858 21.7279 401.816 22.0354L401.205 23.9397C400.251 23.6336 399.298 23.331 398.344 23.032L398.943 21.1237ZM404.668 22.961C405.61 23.2705 406.553 23.5836 407.496 23.9001L406.859 25.7961C405.921 25.481 404.982 25.1693 404.044 24.8612L404.668 22.961ZM410.325 24.8604C411.268 25.1841 412.211 25.5112 413.154 25.842L412.493 27.7293C411.554 27.4001 410.615 27.0743 409.676 26.7521L410.325 24.8604ZM415.984 26.845C416.928 27.1829 417.871 27.5244 418.814 27.8695L418.127 29.7478C417.188 29.4042 416.249 29.0642 415.31 28.7278L415.984 26.845ZM421.645 28.9157C422.577 29.264 423.509 29.6157 424.442 29.9711L423.73 31.84C422.801 31.4862 421.873 31.136 420.945 30.7893L421.645 28.9157ZM427.223 31.0417C428.15 31.4021 429.077 31.7661 430.004 32.1336L429.267 33.9929C428.344 33.627 427.421 33.2646 426.499 32.9058L427.223 31.0417ZM432.785 33.247C433.712 33.6217 434.639 34 435.566 34.3819L434.804 36.2311C433.882 35.8509 432.959 35.4743 432.036 35.1012L432.785 33.247ZM438.347 35.5385C439.273 35.9277 440.2 36.3204 441.126 36.7169L440.34 38.5556C439.417 38.161 438.495 37.7699 437.572 37.3825L438.347 35.5385ZM443.868 37.9008C444.777 38.297 445.686 38.6967 446.595 39.1L445.784 40.9282C444.879 40.5267 443.974 40.1287 443.069 39.7343L443.868 37.9008ZM449.322 40.3206C450.231 40.731 451.139 41.145 452.048 41.5626L451.212 43.3798C450.308 42.9641 449.403 42.5519 448.499 42.1433L449.322 40.3206ZM454.772 42.8263C455.68 43.2511 456.588 43.6795 457.496 44.1116L456.637 45.9175C455.733 45.4873 454.829 45.0608 453.925 44.6378L454.772 42.8263ZM460.219 45.4188C461.115 45.8524 462.01 46.2897 462.905 46.7305L462.022 48.5248C461.131 48.0859 460.239 47.6506 459.347 47.2189L460.219 45.4188ZM465.572 48.0543C466.46 48.4991 467.349 48.9475 468.237 49.3994L467.33 51.1819C466.446 50.732 465.561 50.2856 464.676 49.8427L465.572 48.0543ZM470.901 50.7659C471.788 51.225 472.676 51.6877 473.563 52.1539L472.633 53.9243C471.749 53.4601 470.866 52.9995 469.982 52.5424L470.901 50.7659ZM476.224 53.5636C477.111 54.0371 477.997 54.5142 478.883 54.995L477.929 56.753C477.047 56.2743 476.165 55.7992 475.282 55.3278L476.224 53.5636ZM481.516 56.4348C482.383 56.9124 483.25 57.3935 484.116 57.8781L483.139 59.6235C482.277 59.141 481.414 58.662 480.551 58.1865L481.516 56.4348ZM486.713 59.3426C487.579 59.8343 488.444 60.3295 489.309 60.8283L488.31 62.5609C487.449 62.0642 486.587 61.5712 485.725 61.0816L486.713 59.3426ZM491.903 62.3353C492.767 62.8413 493.631 63.3508 494.495 63.8638L493.473 65.5833C492.613 65.0724 491.753 64.5651 490.892 64.0614L491.903 62.3353ZM497.084 65.4139C497.946 65.9336 498.808 66.4568 499.669 66.9837L498.625 68.6898C497.768 68.1651 496.91 67.6441 496.052 67.1267L497.084 65.4139ZM502.196 68.5405C503.037 69.0629 503.879 69.5888 504.72 70.1181L503.654 71.8108C502.817 71.2837 501.979 70.76 501.141 70.2399L502.196 68.5405ZM507.242 71.7167C508.082 72.2531 508.922 72.793 509.762 73.3364L508.675 75.0154C507.839 74.4743 507.002 73.9367 506.166 73.4026L507.242 71.7167ZM512.279 74.9772C513.118 75.5277 513.956 76.0817 514.794 76.6393L513.686 78.3043C512.851 77.7491 512.017 77.1974 511.182 76.6493L512.279 74.9772Z" fill="black" fill-opacity="0.2"/>
</svg>
