<svg width="20" height="20" viewBox="0 0 20 20" fill="none" xmlns="http://www.w3.org/2000/svg">
<path d="M8.24001 0.32C4.1047 0.32 0.76001 3.66469 0.76001 7.8C0.76001 11.9353 4.1047 15.28 8.24001 15.28C9.71642 15.28 11.0828 14.8469 12.2413 14.1112L17.645 19.515L19.515 17.645L14.18 12.3237C15.1391 11.0656 15.72 9.50672 15.72 7.8C15.72 3.66469 12.3753 0.32 8.24001 0.32ZM8.24001 2.08C11.4077 2.08 13.96 4.63234 13.96 7.8C13.96 10.9677 11.4077 13.52 8.24001 13.52C5.07235 13.52 2.52001 10.9677 2.52001 7.8C2.52001 4.63234 5.07235 2.08 8.24001 2.08Z" fill="white"/>
</svg>
