<svg width="36" height="36" viewBox="0 0 36 36" fill="none" xmlns="http://www.w3.org/2000/svg">
<path d="M18 36C8.07349 36 0 27.9264 0 18C0 8.07352 8.07349 0 18 0C27.9264 0 36 8.07352 36 18C36 27.9264 28.0588 36 18 36ZM18 2.11764C9.26468 2.11764 2.11761 9.26469 2.11761 18C2.11761 26.7353 9.26468 33.8823 18 33.8823C26.7353 33.8823 33.8823 26.7353 33.8823 18C33.8823 9.26469 26.7353 2.11764 18 2.11764Z" fill="#5A6ECB"/>
<path d="M16.4115 23.2941C15.6173 23.2941 14.9556 23.0295 14.5586 22.5L12.1762 20.1177C11.7792 19.7207 11.7792 19.0589 12.1762 18.6618C12.5733 18.2648 13.235 18.2648 13.6321 18.6618L16.0145 21.0441C16.2791 21.3089 16.2791 21.3089 16.4115 21.3089C16.6761 21.3089 16.8086 21.3089 16.8086 21.0441L22.4997 15.353C22.8968 14.9559 23.5586 14.9559 23.9556 15.353C24.3527 15.75 24.3527 16.4118 23.9556 16.8089L18.2645 22.5C17.8674 22.8971 17.2056 23.2941 16.4115 23.2941Z" fill="#5A6ECB"/>
</svg>
