<svg width="67" height="67" viewBox="0 0 67 67" fill="none" xmlns="http://www.w3.org/2000/svg">
<path d="M33.3578 40.5906C23.7265 40.5906 15.6001 42.1645 15.6001 48.2384C15.6001 54.3149 23.779 55.8333 33.3578 55.8333C42.9889 55.8333 51.1153 54.2596 51.1153 48.1856C51.1153 42.1092 42.9364 40.5906 33.3578 40.5906Z" fill="#5A6ECB"/>
<path opacity="0.4" d="M33.3574 34.8038C39.879 34.8038 45.1084 29.5443 45.1084 22.9852C45.1084 16.4236 39.879 11.1667 33.3574 11.1667C26.8358 11.1667 21.6064 16.4236 21.6064 22.9852C21.6064 29.5443 26.8358 34.8038 33.3574 34.8038Z" fill="#5A6ECB"/>
<path opacity="0.4" d="M58.8707 25.737C60.5579 19.1 55.6112 13.1392 49.312 13.1392C48.6271 13.1392 47.9722 13.2146 47.3323 13.3428C47.2472 13.3629 47.1522 13.4057 47.1023 13.4811C47.0449 13.5766 47.0872 13.7048 47.1497 13.7878C49.042 16.4577 50.1294 19.7084 50.1294 23.1979C50.1294 26.5415 49.1321 29.659 47.3822 32.2459C47.2023 32.5124 47.3623 32.872 47.6797 32.9273C48.1197 33.0052 48.5696 33.0454 49.0296 33.058C53.6164 33.1787 57.7334 30.2096 58.8707 25.737Z" fill="#5A6ECB"/>
<path d="M63.6757 41.364C62.8359 39.5639 60.8086 38.3296 57.7266 37.7237C56.2717 37.3666 52.3348 36.8638 48.6727 36.9318C48.6178 36.9393 48.5878 36.977 48.5828 37.0021C48.5753 37.0373 48.5903 37.0976 48.6629 37.1353C50.3551 37.9776 56.8967 41.6405 56.0742 49.3663C56.0392 49.7006 56.3067 49.9897 56.6392 49.9395C58.2491 49.7082 62.391 48.8131 63.6757 46.025C64.3858 44.5519 64.3858 42.8397 63.6757 41.364Z" fill="#5A6ECB"/>
<path opacity="0.4" d="M19.6669 13.3436C19.0294 13.2129 18.3721 13.14 17.6872 13.14C11.3879 13.14 6.44112 19.1007 8.13089 25.7379C9.26574 30.2103 13.3827 33.1794 17.9696 33.0588C18.4295 33.0463 18.882 33.0035 19.3195 32.928C19.6369 32.8727 19.7969 32.5133 19.6168 32.2468C17.8671 29.6572 16.8698 26.5424 16.8698 23.1986C16.8698 19.7067 17.9595 16.456 19.8518 13.7886C19.9118 13.7056 19.9568 13.5774 19.8968 13.4819C19.8468 13.4039 19.7543 13.3637 19.6669 13.3436Z" fill="#5A6ECB"/>
<path d="M9.2725 37.7228C6.19042 38.3287 4.16569 39.5632 3.3258 41.3633C2.61341 42.839 2.61341 44.551 3.3258 46.0268C4.61063 48.8123 8.75258 49.7098 10.3624 49.9386C10.6948 49.9889 10.9598 49.7023 10.9248 49.3654C10.1024 41.6423 16.644 37.9793 18.3388 37.1371C18.4088 37.0969 18.4237 37.0391 18.4164 37.0014C18.4113 36.9761 18.3839 36.9384 18.3288 36.9334C14.6643 36.8631 10.7298 37.3659 9.2725 37.7228Z" fill="#5A6ECB"/>
</svg>
