<svg width="26" height="26" viewBox="0 0 26 26" fill="none" xmlns="http://www.w3.org/2000/svg">
<path fill-rule="evenodd" clip-rule="evenodd" d="M16.3262 12.9102C16.1174 12.1623 15.7184 11.4565 15.1304 10.8697C13.3081 9.04733 10.3529 9.04617 8.53058 10.8697L2.69958 16.7007C0.877248 18.5242 0.876081 21.4782 2.69958 23.3005C4.52191 25.124 7.47825 25.1217 9.29825 23.3005L13.7806 18.8193L14.1691 18.8298C14.6404 18.8298 15.1047 18.7832 15.5562 18.6933L10.1231 24.1253C8.98558 25.264 7.49225 25.8333 5.99892 25.8333C4.50558 25.8333 3.01225 25.264 1.87475 24.1253C-0.402585 21.8492 -0.402585 18.152 1.87475 15.8758L7.70575 10.0448C8.84325 8.90617 10.3377 8.33683 11.8311 8.33683C13.3232 8.33683 14.8177 8.90617 15.9552 10.0448C16.5304 10.62 16.9597 11.285 17.2444 11.9955L16.3262 12.9102ZM9.67275 13.0817C9.88041 13.8318 10.2806 14.54 10.8697 15.1303C12.6921 16.9538 15.6484 16.9515 17.4684 15.1303L23.3006 9.29933C25.1241 7.477 25.1241 4.52183 23.3006 2.6995C21.4783 0.877166 18.5231 0.875999 16.7007 2.6995L12.2196 7.18067L11.8311 7.17017C11.3597 7.17017 10.8954 7.21683 10.4439 7.30667L15.8759 1.87467C17.0134 0.735999 18.5079 0.166666 20.0012 0.166666C21.4934 0.166666 22.9879 0.735999 24.1254 1.87467C26.4016 4.15083 26.4016 7.84683 24.1254 10.1242L18.2932 15.9552C17.1558 17.0938 15.6624 17.6632 14.1691 17.6632C12.6757 17.6632 11.1824 17.0938 10.0449 15.9552C9.46858 15.3777 9.03808 14.7103 8.75342 13.9975L9.67275 13.0817Z" fill="#1D1D1B"/>
</svg>
