<svg width="61" height="61" viewBox="0 0 61 61" fill="none" xmlns="http://www.w3.org/2000/svg">
<path opacity="0.4" d="M40.8584 5.08337H49.4644C53.0285 5.08337 55.9165 7.99574 55.9165 11.5899V20.2687C55.9165 23.8628 53.0285 26.7752 49.4644 26.7752H40.8584C37.2943 26.7752 34.4062 23.8628 34.4062 20.2687V11.5899C34.4062 7.99574 37.2943 5.08337 40.8584 5.08337Z" fill="#5A6ECB"/>
<path fill-rule="evenodd" clip-rule="evenodd" d="M11.5356 5.08337H20.1417C23.7058 5.08337 26.5937 7.99574 26.5937 11.5899V20.2687C26.5937 23.8628 23.7058 26.7752 20.1417 26.7752H11.5356C7.97154 26.7752 5.08356 23.8628 5.08356 20.2687V11.5899C5.08356 7.99574 7.97154 5.08337 11.5356 5.08337ZM11.5356 34.2248H20.1415C23.7056 34.2248 26.5937 37.1373 26.5937 40.7314V49.4102C26.5937 53.0019 23.7056 55.9167 20.1415 55.9167H11.5356C7.97148 55.9167 5.0835 53.0019 5.0835 49.4102V40.7314C5.0835 37.1373 7.97148 34.2248 11.5356 34.2248ZM49.4647 34.2248H40.8588C37.2946 34.2248 34.4067 37.1373 34.4067 40.7314V49.4102C34.4067 53.0019 37.2946 55.9167 40.8588 55.9167H49.4647C53.0289 55.9167 55.9168 53.0019 55.9168 49.4102V40.7314C55.9168 37.1373 53.0289 34.2248 49.4647 34.2248Z" fill="#5A6ECB"/>
</svg>
