<svg width="1284" height="259" viewBox="0 0 1284 259" fill="none" xmlns="http://www.w3.org/2000/svg">
<path d="M387 179.42C381.58 172.6 378.873 163.773 378.88 152.94V22.54C378.833 21.6363 378.977 20.7329 379.303 19.8886C379.628 19.0443 380.128 18.2781 380.77 17.64C382.123 16.4966 383.838 15.8693 385.61 15.8693C387.382 15.8693 389.096 16.4966 390.45 17.64C391.06 18.296 391.531 19.0678 391.837 19.9095C392.143 20.7512 392.276 21.6457 392.23 22.54V152.94C392.23 159.773 393.677 165.373 396.57 169.74C399.463 174.107 403.21 176.297 407.81 176.31H413.37C414.127 176.291 414.879 176.441 415.571 176.749C416.263 177.057 416.877 177.515 417.37 178.09C418.469 179.475 419.02 181.215 418.92 182.98C418.983 184.749 418.343 186.471 417.14 187.77C416.505 188.412 415.74 188.913 414.897 189.239C414.055 189.564 413.152 189.708 412.25 189.66H407.8C399.34 189.66 392.403 186.247 386.99 179.42" fill="#1D1D1B"/>
<path d="M511.6 74.72C520.965 79.9969 528.711 87.732 534 97.09C539.467 106.794 542.268 117.773 542.12 128.91V183C542.181 184.769 541.541 186.49 540.34 187.79C539.705 188.432 538.94 188.933 538.097 189.259C537.255 189.584 536.352 189.728 535.45 189.68C534.565 189.709 533.683 189.556 532.859 189.231C532.036 188.906 531.288 188.415 530.661 187.788C530.035 187.162 529.544 186.414 529.219 185.59C528.894 184.767 528.741 183.885 528.77 183V165.63C523.837 173.519 516.869 179.934 508.6 184.2C499.778 188.803 489.95 191.14 480 191C468.862 191.154 457.882 188.352 448.18 182.88C438.825 177.604 431.09 169.872 425.81 160.52C420.359 150.889 417.557 139.986 417.69 128.92C417.536 117.782 420.338 106.802 425.81 97.1C431.091 87.7459 438.826 80.0112 448.18 74.73C457.9 69.4065 468.803 66.616 479.885 66.616C490.967 66.616 501.87 69.4065 511.59 74.73L511.6 74.72ZM504.92 172.09C512.259 167.863 518.301 161.707 522.39 154.29C526.663 146.524 528.847 137.783 528.73 128.92C528.848 120.057 526.664 111.315 522.39 103.55C518.285 96.1163 512.249 89.9286 504.92 85.64C499.332 82.3276 493.14 80.1622 486.706 79.2703C480.272 78.3784 473.725 78.7779 467.447 80.4454C461.169 82.1129 455.286 85.0149 450.142 88.982C444.999 92.9491 440.698 97.9015 437.49 103.55C433.145 111.292 430.92 120.043 431.04 128.92C430.921 137.797 433.146 146.548 437.49 154.29C441.641 161.698 447.715 167.847 455.07 172.09C462.696 176.321 471.274 178.541 479.995 178.541C488.716 178.541 497.294 176.321 504.92 172.09Z" fill="#1D1D1B"/>
<path d="M654.49 183.65C654.49 187.65 652.49 189.65 648.49 189.65H561.49C557.49 189.65 555.49 187.65 555.49 183.65C555.49 181.417 556.083 179.857 557.27 178.97L636.71 79.97H561.47C557.47 79.97 555.47 77.97 555.47 73.97C555.47 69.97 557.47 67.97 561.47 67.97H648.47C652.47 67.97 654.47 69.97 654.47 73.97C654.585 75.2972 654.269 76.6262 653.57 77.76L573.91 177.67H648.45C652.45 177.67 654.45 179.67 654.45 183.67" fill="#1D1D1B"/>
<path d="M778 73.28C777.869 74.3571 777.569 75.4067 777.11 76.39L702.34 238.39C701.007 241.057 699.3 242.39 697.22 242.39C696.153 242.354 695.1 242.131 694.11 241.73C691.29 240.543 689.88 238.837 689.88 236.61C690.01 235.53 690.311 234.477 690.77 233.49L713 185.43C712.652 184.941 712.354 184.418 712.11 183.87L663.36 77.06C662.789 75.9591 662.485 74.7399 662.47 73.5C662.47 71.27 663.73 69.57 666.25 68.38C667.351 67.8094 668.57 67.5046 669.81 67.49C672.04 67.49 673.74 68.75 674.93 71.27L720.1 170.07L765.5 71.5C766.833 68.8333 768.54 67.5 770.62 67.5C771.691 67.5129 772.749 67.7407 773.73 68.17C776.55 69.36 777.96 71.06 777.96 73.29" fill="#1D1D1B"/>
<path d="M817.74 172.08C810.399 167.854 804.36 161.693 800.28 154.27C795.993 146.513 793.804 137.772 793.93 128.91C793.806 120.045 795.994 111.301 800.28 103.54C804.376 96.1025 810.409 89.9133 817.74 85.63C823.328 82.3176 829.52 80.1522 835.954 79.2603C842.388 78.3684 848.935 78.7679 855.213 80.4354C861.491 82.1029 867.374 85.0049 872.518 88.972C877.661 92.9391 881.962 97.8915 885.17 103.54C889.515 111.282 891.74 120.033 891.62 128.91C891.742 137.784 889.517 146.532 885.17 154.27C881.022 161.682 874.948 167.836 867.59 172.08C859.964 176.311 851.386 178.531 842.665 178.531C833.944 178.531 825.366 176.311 817.74 172.08ZM811.4 74.5C802.087 79.6439 794.344 87.2201 789 96.42C783.479 105.874 780.56 116.622 780.54 127.57V235.05C780.491 235.955 780.634 236.86 780.962 237.705C781.29 238.55 781.794 239.315 782.44 239.95C783.789 241.098 785.503 241.729 787.275 241.729C789.047 241.729 790.761 241.098 792.11 239.95C792.723 239.297 793.198 238.525 793.504 237.683C793.81 236.841 793.941 235.945 793.89 235.05V165.62C798.814 173.511 805.771 179.932 814.03 184.21C822.855 188.802 832.683 191.132 842.63 190.99C853.768 191.141 864.747 188.339 874.45 182.87C883.799 177.59 891.53 169.859 896.81 160.51C902.257 150.877 905.058 139.975 904.93 128.91C905.078 117.773 902.277 106.794 896.81 97.09C891.536 87.7363 883.804 80.0038 874.45 74.73C864.787 69.4354 853.953 66.6409 842.934 66.6008C831.916 66.5606 821.062 69.276 811.36 74.5" fill="#1D1D1B"/>
<path d="M817.74 172.08C810.399 167.854 804.36 161.693 800.28 154.27C795.993 146.513 793.804 137.772 793.93 128.91C793.806 120.045 795.994 111.301 800.28 103.54C804.376 96.1025 810.409 89.9133 817.74 85.63C823.328 82.3176 829.52 80.1522 835.954 79.2603C842.388 78.3684 848.935 78.7679 855.213 80.4354C861.491 82.1029 867.374 85.0049 872.518 88.972C877.661 92.9391 881.962 97.8915 885.17 103.54C889.515 111.282 891.74 120.033 891.62 128.91C891.742 137.784 889.517 146.532 885.17 154.27C881.022 161.682 874.948 167.836 867.59 172.08C859.964 176.311 851.386 178.531 842.665 178.531C833.944 178.531 825.366 176.311 817.74 172.08ZM811.4 74.5C802.087 79.6439 794.344 87.2201 789 96.42C783.479 105.874 780.56 116.622 780.54 127.57V235.05C780.491 235.955 780.634 236.86 780.962 237.705C781.29 238.55 781.794 239.315 782.44 239.95C783.789 241.098 785.503 241.729 787.275 241.729C789.047 241.729 790.761 241.098 792.11 239.95C792.723 239.297 793.198 238.525 793.504 237.683C793.81 236.841 793.941 235.945 793.89 235.05V165.62C798.814 173.511 805.771 179.932 814.03 184.21C822.855 188.802 832.683 191.132 842.63 190.99C853.768 191.141 864.747 188.339 874.45 182.87C883.799 177.59 891.53 169.859 896.81 160.51C902.257 150.877 905.058 139.975 904.93 128.91C905.078 117.773 902.277 106.794 896.81 97.09C891.536 87.7363 883.804 80.0038 874.45 74.73C864.787 69.4354 853.953 66.6409 842.934 66.6008C831.916 66.5606 821.062 69.276 811.36 74.5" fill="url(#paint0_linear_25:704)"/>
<path d="M954.48 72.39C947.76 76.2879 942.107 81.7837 938.02 88.39V74.61C937.986 73.2977 937.577 72.0227 936.839 70.9367C936.102 69.8506 935.068 68.9994 933.86 68.4842C932.653 67.969 931.323 67.8116 930.029 68.0306C928.735 68.2497 927.53 68.8361 926.56 69.72C925.914 70.3531 925.41 71.1167 925.082 71.96C924.755 72.8032 924.611 73.7067 924.66 74.61V183C924.633 183.884 924.788 184.764 925.115 185.586C925.441 186.408 925.933 187.154 926.558 187.779C927.184 188.403 927.931 188.894 928.753 189.219C929.576 189.544 930.456 189.698 931.34 189.67C932.244 189.721 933.149 189.579 933.994 189.253C934.839 188.928 935.604 188.425 936.24 187.78C937.431 186.479 938.063 184.763 938 183V115.33C937.911 108.842 939.602 102.454 942.89 96.86C946.149 91.4 950.856 86.949 956.49 84C962.592 80.8012 969.401 79.1916 976.29 79.32C978.114 79.3522 979.935 79.5025 981.74 79.77C983.471 80.0358 985.218 80.1861 986.97 80.22C988.338 80.293 989.696 79.9439 990.86 79.22C991.969 78.3512 992.728 77.1124 993 75.73C993.161 75.1474 993.235 74.5442 993.22 73.94C993.22 69.0467 987.583 66.6 976.31 66.6C968.653 66.5447 961.121 68.5442 954.5 72.39" fill="#1D1D1B"/>
<path d="M954.48 72.39C947.76 76.2879 942.107 81.7837 938.02 88.39V74.61C937.986 73.2977 937.577 72.0227 936.839 70.9367C936.102 69.8506 935.068 68.9994 933.86 68.4842C932.653 67.969 931.323 67.8116 930.029 68.0306C928.735 68.2497 927.53 68.8361 926.56 69.72C925.914 70.3531 925.41 71.1167 925.082 71.96C924.755 72.8032 924.611 73.7067 924.66 74.61V183C924.633 183.884 924.788 184.764 925.115 185.586C925.441 186.408 925.933 187.154 926.558 187.779C927.184 188.403 927.931 188.894 928.753 189.219C929.576 189.544 930.456 189.698 931.34 189.67C932.244 189.721 933.149 189.579 933.994 189.253C934.839 188.928 935.604 188.425 936.24 187.78C937.431 186.479 938.063 184.763 938 183V115.33C937.911 108.842 939.602 102.454 942.89 96.86C946.149 91.4 950.856 86.949 956.49 84C962.592 80.8012 969.401 79.1916 976.29 79.32C978.114 79.3522 979.935 79.5025 981.74 79.77C983.471 80.0358 985.218 80.1861 986.97 80.22C988.338 80.293 989.696 79.9439 990.86 79.22C991.969 78.3512 992.728 77.1124 993 75.73C993.161 75.1474 993.235 74.5442 993.22 73.94C993.22 69.0467 987.583 66.6 976.31 66.6C968.653 66.5447 961.121 68.5442 954.5 72.39" fill="url(#paint1_linear_25:704)"/>
<path d="M1011.09 69.72C1010.45 70.3551 1009.95 71.1193 1009.62 71.9622C1009.29 72.8052 1009.15 73.7076 1009.2 74.61V183C1009.17 183.885 1009.32 184.766 1009.65 185.589C1009.97 186.412 1010.47 187.16 1011.09 187.785C1011.72 188.411 1012.47 188.901 1013.29 189.225C1014.11 189.549 1015 189.701 1015.88 189.67C1016.78 189.72 1017.69 189.577 1018.53 189.251C1019.37 188.926 1020.14 188.424 1020.77 187.78C1021.97 186.485 1022.61 184.766 1022.55 183V74.61C1022.63 73.7145 1022.51 72.8128 1022.2 71.9683C1021.89 71.1237 1021.4 70.3567 1020.77 69.7211C1020.13 69.0855 1019.37 68.5967 1018.52 68.289C1017.68 67.9813 1016.78 67.8622 1015.88 67.94C1014.11 67.8772 1012.39 68.5172 1011.09 69.72ZM1008.53 24.32C1007.47 25.2661 1006.65 26.4381 1006.11 27.7487C1005.57 29.0593 1005.33 30.4748 1005.41 31.89C1005.37 33.2623 1005.61 34.6282 1006.11 35.9075C1006.61 37.1868 1007.35 38.3538 1008.31 39.34C1009.26 40.3258 1010.4 41.1022 1011.66 41.619C1012.93 42.1358 1014.28 42.3814 1015.65 42.34C1017.03 42.3644 1018.4 42.1105 1019.68 41.5935C1020.96 41.0764 1022.12 40.3069 1023.1 39.3307C1024.08 38.3545 1024.85 37.1916 1025.36 35.9115C1025.88 34.6315 1026.13 33.2603 1026.11 31.88C1026.2 30.4754 1025.97 29.069 1025.45 27.7608C1024.93 26.4525 1024.13 25.2744 1023.11 24.31C1021.13 22.5372 1018.55 21.5829 1015.89 21.64C1013.19 21.5912 1010.58 22.5424 1008.54 24.31" fill="#1D1D1B"/>
<path d="M1011.09 69.72C1010.45 70.3551 1009.95 71.1193 1009.62 71.9622C1009.29 72.8052 1009.15 73.7076 1009.2 74.61V183C1009.17 183.885 1009.32 184.766 1009.65 185.589C1009.97 186.412 1010.47 187.16 1011.09 187.785C1011.72 188.411 1012.47 188.901 1013.29 189.225C1014.11 189.549 1015 189.701 1015.88 189.67C1016.78 189.72 1017.69 189.577 1018.53 189.251C1019.37 188.926 1020.14 188.424 1020.77 187.78C1021.97 186.485 1022.61 184.766 1022.55 183V74.61C1022.63 73.7145 1022.51 72.8128 1022.2 71.9683C1021.89 71.1237 1021.4 70.3567 1020.77 69.7211C1020.13 69.0855 1019.37 68.5967 1018.52 68.289C1017.68 67.9813 1016.78 67.8622 1015.88 67.94C1014.11 67.8772 1012.39 68.5172 1011.09 69.72ZM1008.53 24.32C1007.47 25.2661 1006.65 26.4381 1006.11 27.7487C1005.57 29.0593 1005.33 30.4748 1005.41 31.89C1005.37 33.2623 1005.61 34.6282 1006.11 35.9075C1006.61 37.1868 1007.35 38.3538 1008.31 39.34C1009.26 40.3258 1010.4 41.1022 1011.66 41.619C1012.93 42.1358 1014.28 42.3814 1015.65 42.34C1017.03 42.3644 1018.4 42.1105 1019.68 41.5935C1020.96 41.0764 1022.12 40.3069 1023.1 39.3307C1024.08 38.3545 1024.85 37.1916 1025.36 35.9115C1025.88 34.6315 1026.13 33.2603 1026.11 31.88C1026.2 30.4754 1025.97 29.069 1025.45 27.7608C1024.93 26.4525 1024.13 25.2744 1023.11 24.31C1021.13 22.5372 1018.55 21.5829 1015.89 21.64C1013.19 21.5912 1010.58 22.5424 1008.54 24.31" fill="url(#paint2_linear_25:704)"/>
<path d="M1071.37 74.94C1062.63 80.3424 1055.55 88.0432 1050.9 97.2C1045.91 107.015 1043.39 117.9 1043.56 128.91C1043.42 139.948 1046.15 150.834 1051.46 160.51C1056.52 169.796 1064.02 177.526 1073.15 182.87C1082.53 188.336 1093.23 191.144 1104.09 190.99C1111.68 191.034 1119.22 189.717 1126.34 187.1C1133.07 184.649 1139.27 180.913 1144.58 176.1C1145.16 175.612 1145.62 174.998 1145.93 174.305C1146.24 173.612 1146.39 172.858 1146.36 172.1C1146.37 171.171 1146.18 170.25 1145.79 169.404C1145.41 168.557 1144.85 167.805 1144.14 167.2C1143.61 166.685 1142.99 166.281 1142.3 166.013C1141.61 165.745 1140.88 165.618 1140.14 165.64C1139.27 165.636 1138.4 165.811 1137.6 166.155C1136.79 166.499 1136.07 167.005 1135.47 167.64C1127.6 174.913 1117.14 178.547 1104.1 178.54C1095.5 178.7 1087.02 176.467 1079.61 172.09C1072.51 167.81 1066.74 161.645 1062.93 154.28C1058.86 146.454 1056.8 137.74 1056.93 128.92C1056.78 120.087 1058.65 111.337 1062.38 103.33C1065.74 96.0197 1071.16 89.8517 1077.98 85.5869C1084.8 81.3221 1092.72 79.147 1100.76 79.33C1115.43 79.33 1127.52 84.97 1137.03 96.25C1137.6 97.0802 1138.36 97.7577 1139.26 98.2233C1140.15 98.6888 1141.14 98.9281 1142.15 98.92C1143.46 98.926 1144.73 98.4492 1145.72 97.58C1146.65 97.1409 1147.43 96.4488 1147.98 95.5836C1148.53 94.7184 1148.83 93.7153 1148.83 92.69C1148.69 91.3005 1148.15 89.9819 1147.27 88.9C1141.81 81.901 1134.81 76.2661 1126.8 72.44C1118.65 68.6753 1109.77 66.7758 1100.8 66.88C1090.44 66.7482 1080.25 69.5606 1071.43 74.99" fill="#1D1D1B"/>
<path d="M1071.37 74.94C1062.63 80.3424 1055.55 88.0432 1050.9 97.2C1045.91 107.015 1043.39 117.9 1043.56 128.91C1043.42 139.948 1046.15 150.834 1051.46 160.51C1056.52 169.796 1064.02 177.526 1073.15 182.87C1082.53 188.336 1093.23 191.144 1104.09 190.99C1111.68 191.034 1119.22 189.717 1126.34 187.1C1133.07 184.649 1139.27 180.913 1144.58 176.1C1145.16 175.612 1145.62 174.998 1145.93 174.305C1146.24 173.612 1146.39 172.858 1146.36 172.1C1146.37 171.171 1146.18 170.25 1145.79 169.404C1145.41 168.557 1144.85 167.805 1144.14 167.2C1143.61 166.685 1142.99 166.281 1142.3 166.013C1141.61 165.745 1140.88 165.618 1140.14 165.64C1139.27 165.636 1138.4 165.811 1137.6 166.155C1136.79 166.499 1136.07 167.005 1135.47 167.64C1127.6 174.913 1117.14 178.547 1104.1 178.54C1095.5 178.7 1087.02 176.467 1079.61 172.09C1072.51 167.81 1066.74 161.645 1062.93 154.28C1058.86 146.454 1056.8 137.74 1056.93 128.92C1056.78 120.087 1058.65 111.337 1062.38 103.33C1065.74 96.0197 1071.16 89.8517 1077.98 85.5869C1084.8 81.3221 1092.72 79.147 1100.76 79.33C1115.43 79.33 1127.52 84.97 1137.03 96.25C1137.6 97.0802 1138.36 97.7577 1139.26 98.2233C1140.15 98.6888 1141.14 98.9281 1142.15 98.92C1143.46 98.926 1144.73 98.4492 1145.72 97.58C1146.65 97.1409 1147.43 96.4488 1147.98 95.5836C1148.53 94.7184 1148.83 93.7153 1148.83 92.69C1148.69 91.3005 1148.15 89.9819 1147.27 88.9C1141.81 81.901 1134.81 76.2661 1126.8 72.44C1118.65 68.6753 1109.77 66.7758 1100.8 66.88C1090.44 66.7482 1080.25 69.5606 1071.43 74.99" fill="url(#paint3_linear_25:704)"/>
<path d="M1186.19 90.86C1194.13 83.14 1203.88 79.28 1215.45 79.28C1227.45 79.28 1237.39 83.14 1245.27 90.86C1253.15 98.58 1257.6 108.74 1258.62 121.34H1172.06C1173.54 108.733 1178.25 98.5733 1186.19 90.86ZM1185.74 74.73C1177.05 80.0077 1170.03 87.6343 1165.49 96.73C1160.67 106.163 1158.26 116.883 1158.27 128.89C1158.27 140.763 1160.86 151.407 1166.05 160.82C1171.03 170.008 1178.46 177.626 1187.53 182.82C1196.65 188.087 1207.07 190.72 1218.79 190.72C1226.29 190.619 1233.71 189.187 1240.71 186.49C1248.35 183.67 1254.54 180.11 1259.29 175.81C1260.14 174.958 1260.72 173.87 1260.94 172.687C1261.17 171.503 1261.03 170.28 1260.55 169.175C1260.07 168.07 1259.27 167.136 1258.25 166.493C1257.23 165.85 1256.04 165.528 1254.84 165.57C1253.12 165.603 1251.47 166.232 1250.17 167.35C1246.75 170.617 1242.11 173.253 1236.26 175.26C1230.64 177.218 1224.74 178.232 1218.79 178.26C1210.63 178.371 1202.58 176.377 1195.42 172.47C1188.52 168.683 1182.76 163.112 1178.74 156.34C1174.51 149.217 1172.14 141.147 1171.84 132.87H1265.07C1266.79 132.945 1268.47 132.346 1269.75 131.2C1270.35 130.607 1270.82 129.893 1271.13 129.105C1271.44 128.318 1271.57 127.474 1271.53 126.63C1271.53 115.057 1269.16 104.747 1264.41 95.7C1259.88 86.8953 1252.98 79.534 1244.49 74.45C1235.71 69.2756 1225.68 66.6217 1215.49 66.78C1204.36 66.78 1194.45 69.4133 1185.78 74.68" fill="#1D1D1B"/>
<path d="M1186.19 90.86C1194.13 83.14 1203.88 79.28 1215.45 79.28C1227.45 79.28 1237.39 83.14 1245.27 90.86C1253.15 98.58 1257.6 108.74 1258.62 121.34H1172.06C1173.54 108.733 1178.25 98.5733 1186.19 90.86ZM1185.74 74.73C1177.05 80.0077 1170.03 87.6343 1165.49 96.73C1160.67 106.163 1158.26 116.883 1158.27 128.89C1158.27 140.763 1160.86 151.407 1166.05 160.82C1171.03 170.008 1178.46 177.626 1187.53 182.82C1196.65 188.087 1207.07 190.72 1218.79 190.72C1226.29 190.619 1233.71 189.187 1240.71 186.49C1248.35 183.67 1254.54 180.11 1259.29 175.81C1260.14 174.958 1260.72 173.87 1260.94 172.687C1261.17 171.503 1261.03 170.28 1260.55 169.175C1260.07 168.07 1259.27 167.136 1258.25 166.493C1257.23 165.85 1256.04 165.528 1254.84 165.57C1253.12 165.603 1251.47 166.232 1250.17 167.35C1246.75 170.617 1242.11 173.253 1236.26 175.26C1230.64 177.218 1224.74 178.232 1218.79 178.26C1210.63 178.371 1202.58 176.377 1195.42 172.47C1188.52 168.683 1182.76 163.112 1178.74 156.34C1174.51 149.217 1172.14 141.147 1171.84 132.87H1265.07C1266.79 132.945 1268.47 132.346 1269.75 131.2C1270.35 130.607 1270.82 129.893 1271.13 129.105C1271.44 128.318 1271.57 127.474 1271.53 126.63C1271.53 115.057 1269.16 104.747 1264.41 95.7C1259.88 86.8953 1252.98 79.534 1244.49 74.45C1235.71 69.2756 1225.68 66.6217 1215.49 66.78C1204.36 66.78 1194.45 69.4133 1185.78 74.68" fill="url(#paint4_linear_25:704)"/>
<path d="M77.7401 54.66L18.3801 114.66C14.6961 118.39 12.5404 123.363 12.3369 128.602C12.1333 133.84 13.8966 138.965 17.2801 142.97C31.4601 159.71 57.9501 183.97 92.4801 183.97H265.48C256.679 183.993 247.962 182.27 239.831 178.903C231.7 175.535 224.317 170.589 218.11 164.35L186.68 132.92L107.38 54.5C103.423 50.6008 98.0823 48.4283 92.527 48.4583C86.9718 48.4883 81.6547 50.7183 77.7401 54.66Z" fill="url(#paint5_linear_25:704)"/>
<path d="M294.05 90.57C287.52 88.57 285.28 84.05 288.84 80.3C292.4 76.55 300.58 74.71 307.44 76.3C314.68 77.99 317.63 82.78 313.71 86.91C311.11 89.68 306.18 91.3 301.15 91.44C298.752 91.5159 296.357 91.219 294.05 90.56V90.57ZM276.79 65.56C264.209 69.2413 252.415 75.2111 242 83.17C233.36 89.78 226.53 98.17 219.17 106.17L201.39 125.43L199.39 127.56L226.77 153.56C235.277 161.638 245.916 167.114 257.433 169.343C268.95 171.572 280.864 170.461 291.77 166.14C299.88 157.78 336.61 121.14 339.67 116.62C340.253 115.73 340.749 114.786 341.15 113.8C343.568 108.338 344.635 102.374 344.26 96.4123C343.886 90.4507 342.082 84.6669 339 79.55C334.18 71.41 326.64 64.43 314.82 62.05C310.797 61.2853 306.702 60.97 302.61 61.11C293.859 61.5161 285.194 63.0247 276.82 65.6" fill="url(#paint6_linear_25:704)"/>
<defs>
<linearGradient id="paint0_linear_25:704" x1="780.196" y1="329.843" x2="1000.19" y2="194.504" gradientUnits="userSpaceOnUse">
<stop stop-color="#5958C5"/>
<stop offset="1" stop-color="#5BBCDF"/>
</linearGradient>
<linearGradient id="paint1_linear_25:704" x1="924.466" y1="251.608" x2="1060.05" y2="186.189" gradientUnits="userSpaceOnUse">
<stop stop-color="#5958C5"/>
<stop offset="1" stop-color="#5BBCDF"/>
</linearGradient>
<linearGradient id="paint2_linear_25:704" x1="1005.34" y1="274.229" x2="1055.31" y2="268.889" gradientUnits="userSpaceOnUse">
<stop stop-color="#5958C5"/>
<stop offset="1" stop-color="#5BBCDF"/>
</linearGradient>
<linearGradient id="paint3_linear_25:704" x1="1043.27" y1="253.446" x2="1209.96" y2="131.004" gradientUnits="userSpaceOnUse">
<stop stop-color="#5958C5"/>
<stop offset="1" stop-color="#5BBCDF"/>
</linearGradient>
<linearGradient id="paint4_linear_25:704" x1="1157.97" y1="253.083" x2="1327.74" y2="118.724" gradientUnits="userSpaceOnUse">
<stop stop-color="#5958C5"/>
<stop offset="1" stop-color="#5BBCDF"/>
</linearGradient>
<linearGradient id="paint5_linear_25:704" x1="-11.5" y1="132.5" x2="236" y2="116" gradientUnits="userSpaceOnUse">
<stop stop-color="#5958C5"/>
<stop offset="1" stop-color="#5A7DCF"/>
</linearGradient>
<linearGradient id="paint6_linear_25:704" x1="199" y1="225.5" x2="351.5" y2="50.5" gradientUnits="userSpaceOnUse">
<stop stop-color="#5958C5"/>
<stop offset="1" stop-color="#5BBCDF"/>
</linearGradient>
</defs>
</svg>
